<svg height="313" viewBox="0 0 317 313" width="317" xmlns="http://www.w3.org/2000/svg"><g fill="#881b1d"><path d="m78.7746685 211.688844c.0882282-.453821.2382163-.925266.5911294-1.202846 2.7968365-2.198609 5.1701772-5.265206 9.3654319-4.696828 1.6586917.083715 3.2247437.563972 4.7643271 1.15438 1.3013672.493475 2.5233288 1.207252 3.9393927 1.370275 4.1643744.23352 8.3199264.524318 12.2990224 1.938653 9.95215 3.542448 17.023646 9.96644 19.507272 20.45279 1.442533 6.097945-.432318 11.675979-4.52611 16.416867-3.352675 3.886118-7.750855 6.362307-12.175503 8.794435-4.534933 2.493813-9.202209 4.762918-13.331293 7.93526-1.1954931.92086-1.1866703.907642.0705827 1.661073 6.3039103 3.771562 12.5504723 7.640056 19.0661313 11.041511 8.368452 4.366375 17.010412 8.00135 26.380256 9.640393 5.320165.934078 10.67121 1.114725 16.048724.59922.582306-.057279 1.010213-.163023 1.085207-.885612.458788-4.591083 1.34107-9.138106 1.486647-13.768843.035291-1.114726-.361736-1.405524-1.420475-1.401118-2.351284.02203-4.680511.5111-7.04944.281986-3.290915-.32164-5.487799-3.326552-4.751093-6.542954.1544-.678528.586718-.563972 1.023448-.563972 4.420237-.030842 8.478738-1.229282 12.060806-3.842058 3.489429-2.546685 6.096574-5.895267 8.439035-9.459745 3.582068-5.450259 6.480367-11.310279 10.168309-16.694447 2.585089-3.775967 5.518679-7.203859 9.449249-9.666829 5.108417-3.198778 10.675622-3.683441 16.467809-2.744957 3.440902.559566 4.834909 2.432129 4.71139 6.212502-.044115 1.467208-.339679 2.868326-1.186671 4.102014-.798466 1.17641-.741117 2.599557-1.098442 3.899336-1.724863 6.221314-5.417216 11.138443-10.062435 15.44754-4.861378 4.507369-10.45064 8.054223-15.819331 11.887469-3.330617 2.37485-6.568595 4.864256-9.321317 7.917635-2.218942 2.458564-3.89969 5.203521-4.676099 8.459577-.167634.700559-.189691 1.304185.317622 1.84172 1.74692 1.859345 1.455766 3.908149.489667 5.965765-.357325.757837-.476433 1.427553-.198514 2.233857 1.080796 3.132687 2.545386 6.075915 4.2129 8.935428.502901.863582 1.085208.374512 1.583698.193865 3.039464-1.105913 5.862769-2.634806 8.531675-4.454496 5.456919-3.709877 10.185954-8.261306 14.897345-12.825952 3.612948-3.502794 7.256776-6.965933 11.187345-10.120651.43673-.352482.802878-.660904 1.327836-.026436.414673.502288.829346.797492.299976 1.528893-5.006955 6.91306-9.33014 14.306378-14.5709 21.056416-4.032033 5.199115-8.597846 9.803416-14.809117 12.433815-4.640807 1.96509-9.458072 2.282324-14.315038 1.167598-1.663103-.383324-2.673317-1.987119-3.723234-3.291304-1.760154-2.189797-2.814482-4.732076-3.335029-7.49025-.070582-.396543-.198513-.779868-.330856-1.277749-1.301367 1.101507-2.827716.92086-4.296717.956108-10.45064.25555-20.517486-1.735975-30.350528-5.128618-8.677252-2.9961-16.953064-6.913061-25.2377-10.812397-4.4070022-2.070834-8.8492961-4.057953-13.2518872-6.124381-.7146491-.339265-.9925682-.140993-1.3278356.480257-1.5528178 2.877137-2.4924489 6.009824-3.7849932 8.992707-1.1160878 2.590745-2.3821636 5.080152-4.4775852 7.054053-1.8439711 1.735976-4.0320324 2.656836-6.5553612 2.868325-.6617121.052873-1.0940307-.11015-1.4513552-.647686-.3661474-.550754-.8425801-1.026605-1.1690247-1.590577-1.0234481-1.771224-.7719975-3.471951.8028773-4.754106 1.0146252-.832739 2.1704157-1.502456 3.2776806-2.220639 1.588109-1.031011 2.333638-2.260293 1.9807249-4.344345-.2999762-1.788848.1058739-3.692253.1676337-5.547191.255862-7.886794-.180868-15.755963-.4411414-23.633944-.3176218-9.464152-.0485255-18.893055 2.1130673-28.172154.052937-.237925.0352913-.489069.052937-.731401 0 0-.0176457.013218-.0176457.013218.2293936-.083714.1676338-.290798.1985137-.458227.5955408-1.956277 1.1690247-3.91696 1.8042683-5.860019.1499881-.458227.1014625-.806304-.1941022-1.119132-.7631747-.806303-.9352198-1.784442-.9131627-2.833077m8.2890468 39.341439c0 1.854939.0264685 3.714283-.0132342 5.564816-.0220571.916454.1499881 1.167598 1.0807964.700559 2.3556951-1.17641 4.8084413-2.150143 7.2655989-3.110657 5.2981086-2.062022 10.6888556-3.921367 15.5767026-6.904249 3.176218-1.943059 5.968643-4.282661 7.671449-7.67971 1.18667-2.361632 2.007193-4.925941 1.420475-7.507874-.670535-2.956446-2.492449-5.344514-4.971663-7.168611-3.215921-2.370444-6.983269-3.264868-10.812376-3.93899-4.6628645-.819522-9.4051345-1.207252-13.9533023-2.612776-1.0234481-.312828-.7411176.445009-.7808203.885612-.4896669 5.207927-.948454 10.415854-1.4425324 15.623782-.5073126 5.375356-1.1469676 10.7419-1.0410937 16.148098m93.4646277 2.828671c3.18063-1.268936 6.211271-2.705302 8.478738-5.340108.423496-.489069.599952-1.136755 1.142556-1.581764 2.699786-2.211827 4.949607-4.846633 6.881806-7.741394 1.182259-1.762412 2.364518-3.538042 3.202687-5.688185-2.673317.259956-5.130475.709371-7.472936 1.652261-2.893887 1.167598-5.165765 2.996101-6.449487 5.952547-.802877 1.850532-1.830737 3.599726-2.690962 5.428228-1.111677 2.37485-2.373341 4.692422-3.092402 7.318415m-121.6182717-189.3755627c.1323424.0837146.1102853.1850533.0088228.286392-1.7204514 5.0360919-2.3953978 10.2528311-2.7262538 15.5356607-.2514506 4.0711715-.6220094 8.1423429-.8690486 12.2179204-.180868 3.0005063-.511724 6.0098246-.0132342 9.0103306.6970034 4.216571 4.5216993 5.741057 7.9317223 3.145905 3.4585486-2.630399 6.5950639-5.6220935 9.6080597-8.7371565 5.5407359-5.7234326 10.6270963-11.861032 16.2869404-17.4699078 1.7425085-1.7271637 3.5511883-3.3926429 5.593673-5.331296 0 .8459577-.0088229 1.3218089 0 1.7976601.0970511 4.8246026-.3749702 9.6536111.2470391 14.4694016.4499643 3.4763575 1.3234242 6.7720677 3.8291074 9.4465277 3.0835786 3.2913039 7.4332326 4.6527679 10.9579526 2.9960999 2.571854-1.207252 5.276051-2.1545482 7.67586-3.7142827.697003-.4538211.961688-.4317909.917574.5199115-.110285 2.4850012.141165 4.9479712.864637 7.3360392.749941 2.449753.070583 1.956277 2.68214 1.973902 1.138145.008812 2.258644-.21149 2.580677 1.49805.573484-.718183.974923-1.180816 1.332247-1.678698 2.62038-3.63938 4.049678-7.8030783 5.280463-12.0504909 1.411652-4.8598508 2.492449-9.8254463 4.490819-14.5046498 2.12189-4.9788136 5.192234-9.1645418 9.938916-11.9711828 2.223353-1.3174028 4.693744-2.1501425 6.753875-3.8244338 1.835148-1.493644 2.960058-1.1323496 4.199666.9164542.833757 1.3746813 1.446944 2.8727314 2.399809 4.1813222 1.305779 1.7844421 3.02623 2.4409405 5.196646 2.0355858.551426-.1013387.771997-.3568885.820523-.885612.299976-3.4675454.088228-6.8469702-1.671926-9.9664392-.657301-1.1631919-1.438121-2.1589546-2.796837-2.6392118-2.307169-.8195216-4.631984-1.1191316-7.058262-.7225889-3.511486.5727839-6.506836 2.3043535-9.471306 4.1152317-2.360106 1.4363657-4.662864 2.9696641-7.27001 3.9566147-.617598.2335196-1.058739.3568884-1.239607-.5375356-.220571-1.0926954-.410262-2.1809847-.423496-3.3001163-.026469-2.4321284.202925-4.8642568-.03088-7.3007912-.335268-3.4587333-2.285113-5.3753562-5.580439-5.3753562-.538192 0-1.076385.0925266-1.610166.0837145-.926397-.0132181-.996979.3260462-.648478 1.1235376 3.264447 7.410942 2.911533 14.8042598-.039702 22.2284199-2.227765 5.5912517-5.179 10.8696753-7.075908 16.5975139-.09264.2775799-.260274.4978814-.524959.6609045-2.082187 1.2601245-4.014386 2.7581746-6.193625 3.859682-2.30717 1.1587858-4.68051 1.5465165-7.168548.5463477-.613186-.2423316-.996979-.6036261-1.292544-1.2072521-2.020428-4.1020137-2.68214-8.441953-2.443923-12.9669455.28233-5.2916417 1.596931-10.4070422 2.708608-15.5532849.833757-3.8729001 1.535172-7.7634243 1.707217-11.7288511.03088-.6961527.149988-1.5068621-.948454-.7930853-.533781.3436703-.807289.0440603-1.151379-.2819859-1.266076-1.17641-1.971902-1.0574471-2.765957.4009487-1.9763131 3.6305685-4.234957 7.0760837-6.7406402 10.3585758-7.4155869 9.7197016-16.2648833 17.9589772-26.1023365 25.1716478-1.949845 1.4275536-3.9173356 2.8242651-6.2156823 4.2297885 1.4204753-12.1386118 1.1646133-24.2067272 4.6849216-35.8694879-1.4822351.2247075-2.536563.9649205-3.6305937 1.6082009-.7808203-1.7359757-.7808203-1.7447878-2.6689054-1.2248763-5.20988 1.4407717-10.4682854 2.665648-15.8281534 3.405861-5.8318893.8018974-11.6770128 1.0882893-17.5530163.5639718-.7499403-.0660905-1.0587393-.2291136-.9131627-1.1279436.5073126-3.1811535 1.7998569-5.9745763 4.2702488-8.010162 1.5792862-1.2953728 2.3865749-3.0005063 3.4012002-4.6219252.3396788-.5463477.4279071-1.1631919.3705587-1.7932541-.1588109-1.7095397-1.4557666-2.5687155-3.0571099-2.0399919-4.049678 1.3438392-6.7847547 4.2474128-9.1272155 7.6268376-2.0910102 3.0225364-3.7849932 6.2962164-5.9598203 9.2614744-1.9983705 2.7141143-4.3672998 4.9567835-7.72438588 5.8688316-2.69096253.7314009-5.40398213.5463477-8.09053325-.0749025-.74552896-.1718352-1.09844208-.0660904-1.0102138.7754612.08381687.7798673.09705111 1.5641406.19851363 2.3396018.41908433 3.1326871 2.02042761 4.1196378 5.01136629 3.0357545 1.54840631-.5639718 3.03946423-1.2821547 4.58345913-1.8637506 1.17784758-.440603 2.39539778-.59922 3.62618228-.1189628.8425801.3260462 1.1072649.744619.6749464 1.6654792-1.6145776 3.4499213-2.1660043 7.1465802-2.4659805 10.9049236-.4014386 5.1109945-.0705826 10.235207-.255862 15.3506075-.149988 4.1416676-.0308799 8.2436816 1.4734123 12.1870786 1.4557666 3.802403 3.6261823 6.692759 8.1214131 7.128956 4.1158493.396542 7.7817343-3.925773 6.5465384-7.886794-.3970273-1.268936-1.2087274-2.004743-2.5189174-2.233857-1.3013671-.229113-1.4954693.920861-2.0733646 1.594983-.2249821.259956-.2205707.828334-.6705349.740213-.2249821-.04406-.3926158-.489069-.5381925-.775461-2.1836499-4.379594-3.3526746-9.041173-3.5864796-13.9098359-.4102615-8.5653217 1.7116287-16.6680104 4.720213-24.5944578.1720451-.4582271.3793816-.7181829.9528654-.7446191 1.8130912-.0969326 3.6217709-.2863919 5.4304506-.4229788 7.0450282-.5375356 14.0282965-1.484832 20.9498051-2.8991676 2.8630076-.5860019 5.7127811-1.2380943 8.5713773-1.8637505.0485256-.0484664.1323424-.149805.1455767-.140993m164.2854687 50.0128437c-2.099834-3.071003-2.739489-6.542955-2.686552-10.451103-.569072.418573-.961688.678529-1.323424.978139-2.417455 1.982713-5.090772 3.516011-8.090533 4.423654-2.633614.797491-5.249583.140993-7.825848-.334859-6.568596-1.207252-12.682816-3.842058-18.880852-6.212502-2.465981-.94289-4.945195-1.850532-7.42441-2.758174-1.548406-.563972-1.760154-.4626333-2.62038 1.017793-1.195493 2.057616-1.517526 4.335533-1.71604 6.648699-.180868 2.048803-.286742 4.110825-.776409 6.124381-.727883 2.969664-2.52774 4.829008-5.58485 5.410604-.692592.132181-1.116088-.02203-1.548406-.630062-2.232176-3.132687-2.351284-6.59142-1.667515-10.186741.608775-3.194371 1.791034-6.256562 2.240999-9.4949937.255862-1.8461264.15881-3.6746288-.732295-5.3004537-.630832-1.1411617-.383793-2.0488038.176456-2.9961002.463199-.7798673 1.001391-1.5288923 1.720452-2.0972702 2.611557-2.0532098 3.842341-4.6924216 4.199666-8.0321921 1.21755-11.3939929 3.436491-22.6337747 5.55397-33.8867746 2.668906-14.1697917 5.36428-28.3351773 7.01856-42.67239795.114697-.98254463.242628-1.96949528.264685-2.95644594.017645-.7710552.238216-1.06185316 1.076385-1.07507125 3.674708-.06168441 3.692353-.09252662 3.89969 3.67462878.348501 6.24334411-.119109 12.43822186-1.067563 18.61547556-1.292544 8.4287348-3.352674 16.7120707-4.71139 25.1275876-.816111 5.0537161-1.455766 10.1206503-1.371949 15.2536749v.6917467c.123519.0925266.25145.1850532.37497.2731738 1.888085-1.9915254 3.705587-4.0579534 5.686312-5.9525461 1.980725-1.8989988 4.274661-3.3662067 7.014149-4.005081 2.082187-.4802573 4.340831-.5639719 5.9907.6476863 1.336658.9869507 1.283721 3.1018449 1.504292 4.7981664.78082 6.1155692-1.663103 11.1031949-5.55397 15.5620969-3.304149 3.7847796-7.305302 6.7940979-11.147643 9.9752513-2.068954 1.7095395-4.080558 3.4851695-6.127454 5.2167392-.458787.3877306-.648478.6168441.013234 1.0574471 6.423019 4.2562247 13.022494 8.1291248 20.636594 9.9135672 4.071736.956108 8.161116 1.088289 12.281377.38773 1.486647-.251143 2.660083-1.088289 3.820285-1.9474648 1.658691-1.2248763 3.273269-2.5070309 4.940783-3.7230951.617598-.4494151.93522-.9693266.970511-1.7403818.052937-1.3614632.145577-2.7185203.304388-4.0667654.123519-1.0926954-.37497-1.3570572-1.345481-1.3041848-1.689572.0969326-3.365909.3877306-5.064304.2555497-2.885064-.2203015-4.442294-2.1281123-4.102615-5.0140618.048526-.4097608.110286-.7137768.626421-.7093708 8.20523.0881206 12.969557-4.9920317 16.97071-11.2485938 2.977704-4.6571735 5.39957-9.6536112 8.712542-14.0992951 2.708608-3.6349745 5.911295-6.661917 10.371235-8.0454103 3.65265-1.1323496 7.327358-.9164542 11.010889-.1057447.573484.1233688.869048.4890693 1.094031.9076421 1.173436 2.2030149 1.358715 4.4589021.185279 6.7368194-.242628.4758513-.511724.9164542-.613187 1.4672079-1.085207 5.8996738-4.33642 10.4995689-8.681662 14.4605896-3.983507 3.6261624-8.540498 6.4812697-12.881329 9.6227689-2.580677 1.8681566-5.104006 3.8068096-7.203839 6.2169079-3.745291 4.304691-4.852556 9.1425117-2.951236 14.6103949.820523 2.348413 1.883674 4.56024 3.162984 6.688353.388204.652092.771997.762243 1.491058.489069 4.027621-1.533298 7.530283-3.899336 10.816787-6.626669 4.164374-3.454327 7.887608-7.3889115 11.879938-11.028292 1.588109-1.4407718 3.237977-2.815453 4.852555-4.2253825.410261-.3568884.74994-.3965427 1.151379.0528723.339679.3833246.502901.6741226.149988 1.1675979-4.226135 5.8512075-7.834671 12.1342063-12.382839 17.7607053-2.426278 3.000507-5.139297 5.701403-8.483149 7.697334-3.546777 2.119301-7.389119 2.97407-11.504968 2.661242-.449964-.035248-.90434.004406-1.354304.008812-1.15579-.326046-2.174827-.894424-3.004173-1.77563-.582306-.625656-1.15579-1.26453-1.733685-1.898998m11.632898-38.2619624c.802878-.4053548 1.376361-.6432804 1.892497-.9693266 2.390986-1.5244862 4.702567-3.0621906 6.493601-5.4150105 1.319013-1.7315697 3.193864-3.0754087 4.517288-4.8730688 1.420475-1.925435 2.801248-3.8773062 3.749702-6.2301261-1.570463.2158955-2.942413.4846633-4.265837.9472964-2.739488.9517024-5.276051 2.2558872-6.736229 4.8995051-1.552818 2.8110469-2.973294 5.6925904-4.39818 8.5697278-.441142.89883-.988157 1.7756299-1.252842 3.0710027m-52.548763 2.37485c.31321-.2070834.489667-.29961.639655-.4229789 3.004173-2.4673766 5.783364-5.1594608 8.187584-8.2172454 1.605755-2.0488038 3.070344-4.1813222 3.926159-6.679541.295564-.8591758.145576-1.1940341-.816112-1.1675979-1.464589.0440603-2.730665.594814-3.917336 1.3746813-2.077776 1.3614632-3.639416 3.2252137-4.914315 5.3180778-1.795445 2.9476339-2.87183 6.1464115-3.105635 9.7946041m124.026904 176.4482724c-1.477824 2.128112-2.752722 4.035923-4.098204 5.890861-5.862769 8.115907-12.32549 15.711902-19.794014 22.400255-6.996503 6.269781-14.592958 11.592265-23.684882 14.46059-2.726254.863582-5.518679 1.335027-8.355218 1.643449-.87346.092527-1.102853-.083715-1.001391-1.044229.917574-8.609382 1.764566-17.227576 2.638026-25.841364.264685-2.60837.538192-5.21674.833757-8.067441-1.645458 1.017793-2.849774 2.132519-4.084969 3.198778-5.89365 5.088964-10.88737 11.037104-16.048725 16.822221-3.740879 4.194541-7.561163 8.305366-12.290199 11.438053-1.102853.731401-2.302758 1.286561-3.46296 1.907811-.697003.374513-.895517.110151-1.133733-.502287-1.852794-4.815791-2.518918-9.79901-2.139536-14.927629.727883-9.940003 4.433471-18.857807 9.444837-27.32179 2.505683-4.229789 5.39516-8.195215 8.518441-11.997619 2.055719-2.511437 4.843732-3.952209 7.667037-5.309266 5.417217-2.608369 11.244694-3.727501 17.160401-4.467714 2.377752-.29961 4.755504-.559566 7.137667-.771055.789644-.066091 1.010214-.568378 1.279311-1.136756 2.708608-5.763087 4.715801-11.772911 6.378904-17.901698 2.514506-9.265881 4.464351-18.663942 6.722995-27.987101.264685-1.097102.741118-1.652261 1.826325-1.960683 4.177609-1.180816 6.811224.616844 6.864161 4.943565.039702 3.648192-.52937 7.199452-2.148359 10.556847-2.942413 6.093539-4.508465 12.618869-5.743661 19.227914-1.266076 6.758849-2.161593 13.588195-3.934981 20.245706-2.011605 7.573965-5.042246 14.636831-10.181544 20.668686-.238216.27758-.46761.568378-.49849.973732-.308799 4.582271-2.06013 8.798842-3.357086 13.129969-.802877 2.683272-1.676337 5.353326-1.627811 8.204027.03088 2.1193.992568 3.370613 2.907121 3.930179.661713.198271 1.274899.158617 1.927788-.088121 4.076147-1.533298 7.600867-3.961021 10.896193-6.741225 4.645219-3.921367 8.67284-8.477202 13.004848-12.720208 3.167396-3.101845 6.493602-5.983389 10.406526-8.124719 2.404221-1.317403 4.967252-2.150142 7.971425-2.731738m-48.393211-9.151324c.044114-2.6304-.538193-3.339771-2.7439-3.167936-4.931961.387731-9.572768 1.740382-13.556275 4.802573-7.419998 5.71462-12.85486 12.834764-15.439949 21.955246-.705826 2.493813-1.539584 4.956783-1.720451 7.569559-.022058.304016-.127932.722589.194102.907642.322033.180647.622009-.105745.895517-.27758 1.323424-.85477 2.408632-1.987119 3.542365-3.071002 4.018798-3.855276 7.384707-8.327397 11.469677-12.120988 4.032032-3.749531 8.412566-7.027618 13.415109-9.402468.727884-.348076 1.323425-.784273 1.835149-1.405523 1.486646-1.806472 1.976313-3.943397 2.108656-5.789523m-39.90124-97.659649c2.942413 4.075578 6.528893 7.415348 11.107941 9.609551 3.754113 1.700728 7.649391 2.93001 11.738772 3.489576 1.014625.136586 2.042485.176241 3.061521.259955 4.279072-1.352651 8.284636-3.335364 12.254908-5.397386 3.970273-2.410098 7.856729-4.947971 11.429974-7.930854.149988-.127774.361736-.185053.542604-.273173 1.596932-1.493644 3.193864-2.978476 4.781973-4.476527 4.027621-3.802403 7.543518-8.063034 11.032946-12.345695 1.327836-1.868156 2.655671-3.740719 3.987918-5.613282.780821-1.625825 1.941023-3.013724 2.876242-4.551428 7.172959-11.755288 12.576942-24.2816302 16.5031-37.455659.90434-3.0357545 1.627812-6.1331934 2.62038-9.1381056 1.116088-3.3838309 3.127692-6.3534949 4.693744-9.5302423 1.416064-2.8727314 2.545386-5.8071472 2.329227-9.1072634-.066171-1.039823-.397027-1.5112682-1.530761-1.5509225-4.795207-.1850532-9.021341 1.2557185-12.76222 4.2165704-4.204078 3.3265525-7.221485 7.6620857-10.238892 12.002025-2.920356 4.1945403-5.681901 8.5124494-9.387489 12.0989576-1.235196 1.194034-2.523329 2.3219776-4.292306 3.1679353v-34.4859945c-1.932199 1.7183516-3.383554 3.5380418-4.473174 5.6529361-2.113067 4.1196378-2.880653 8.5653218-3.220332 13.1167505-.414673 5.5780336-.017646 11.129631.555838 16.6724164.511724 4.9171292 1.160202 9.8210402 1.768977 14.733763.044114.348077-.022057.859176.348502 1.008981 1.067562.422979 2.15277.81071 3.260035 1.092696.732295.185053 1.213139-.308423 1.579286-.929673 1.301367-2.198609 2.5895-4.4060294 3.948216-6.56939 5.880414-9.3760313 12.237262-18.4039862 19.820483-26.5110808.674946-.7225889 1.336658-1.4583959 2.002782-2.1897968.088228.0704965.172045.145399.260273.2158955-.06176.2775798-.110285.5595657-.185279.8327396-2.510095 8.8781498-5.355457 17.646149-8.64196 26.2687491-1.151379 3.0137244-2.360107 6.0054184-3.595303 8.9883004-.68818 1.669886-1.261664 3.392643-2.232175 4.934754-1.146968 3.128281-2.382164 6.212501-4.579048 8.794435-.555838.652092-1.071974 1.339433-1.601343 2.009149-2.011605 2.568716-3.873222 5.251988-6.02158 7.714958-1.394007 2.211827-3.004173 4.260631-4.649631 6.287405-3.701176 4.970001-7.618512 9.746138-12.316667 13.830527-1.989548 1.929841-4.05409 3.753937-6.608299 4.921535-2.615968 2.022368-5.64661 3.145906-8.778713 4.049142-.18528.052872-.410262.013218-.604364-.039655-5.417217-1.405523-10.834433-2.815453-15.554646-6.01423-1.782211-1.207252-3.273269-2.740551-4.768738-4.265037-1.323425-.8768-2.413044-1.929841-2.68214-3.59532-.163222-1.026605-.172045-2.062022.119108-3.066597.533781-1.859344 1.124911-3.701065 1.676337-5.551597.511724-1.696322.582307-3.335365-.670535-4.784949-2.355695-1.044229-2.382163-1.066259-4.036443.947297-2.046896 2.489407-3.383555 5.30486-3.732057 8.538885-.366147 2.211827.251451 4.273849.948454 6.327059.639655 1.19844 1.274899 2.392474 1.914554 3.590914"/><path d="m78.9130077 211.683799c-.0220137 1.047845.1496935 2.025246.9113689 2.830942.2949841.312592.3434144.660406.1937209 1.118288-.6339957 1.941595-1.206353 3.9008-1.800724 5.855603-.2465539.070444-.2377484.25976-.1981237.457882 0 0 .017611-.013208.017611-.013208-1.3208244.026416-1.9372092 1.184329-2.8838 1.809513-3.4165326 2.240979-6.3707767 5.071921-9.5055334 7.665117-2.6768709 2.21016-5.1468126 4.671274-7.7664478 6.95628-3.1919924 2.782512-6.1506392 5.815979-9.0344393 8.897875-5.1556181 5.507789-10.0074466 11.292949-14.2913206 17.522782-3.218409 4.68008-6.172653 9.531866-9.5319499 14.128294-3.5794343 4.90902-6.7273992 10.126231-10.2231813 15.096889-1.9900422 2.830942-3.6630865 5.846798-5.5650737 8.72617-1.25478324 1.893165-2.11331914 4.046089-3.47817108 5.890824-1.22396399 1.655419-2.50956647 3.2492-4.47759491 4.098923-.34781711.149692-.7308562.427062-1.03464583.167303-.38303909-.325801-.23334565-.867334-.10566595-1.281189.66041223-2.148522 1.28119972-4.319057 2.0648889-6.423552 1.87557073-5.0367 3.74673871-10.077801 6.12422274-14.911976 2.98066053-6.058128 6.22548593-11.957758 9.90618343-17.63285 1.6598361-2.562377 3.3152694-5.15117 5.0367439-7.647506 1.1359091-1.646613 2.3598731-3.324045 3.6674893-4.891409 3.4121298-4.076909 6.7097882-8.250677 10.262806-12.213115 3.0819238-3.438516 6.4808454-6.555634 9.6816433-9.875277 4.7989955-4.970658 10.1571401-9.302924 15.5196874-13.63519 4.9751055-4.024076 10.2099731-7.704741 15.5152846-11.279741.5723573-.387438.8497304-.814501.9950211-1.417672m128.4017483-63.5443c-4.129778 1.598183-8.268361 3.165548-12.406944 4.728509-2.716496 1.025832-5.406575 2.122106-8.123071 3.139132-3.134756 1.171121-6.243097 2.408282-9.32502 3.707081-3.605851 1.518935-7.17648 3.134729-10.738303 4.768134-2.923425 1.342826-5.842447 2.690055-8.836316 3.878787-2.571205 1.021428-5.001522 2.355449-7.506686 3.522167-3.227214 1.496921-6.436817 3.042272-9.620004 4.636053-4.310291 2.157327-8.585359 4.393903-12.869233 6.608466-3.394519 1.756681-6.749413 3.575-10.091099 5.432943-1.928404 1.069858-3.825988 2.21016-5.816031 3.147937-1.950417.920166-3.715919 2.144119-5.609101 3.147937-1.320824.700031-2.465539 1.725862-3.773155 2.456712-4.7109406 2.619611-9.1885355 5.613454-13.7497826 8.475215 1.6554333.083651 3.2184089.563546 4.7549681 1.153509 1.2988107.493104 2.5183719 1.206343 3.9316541 1.369243.0924577-.409452.4402748-.559144.7572727-.752863 1.3560464-.82771 2.6856767-1.690641 4.0549307-2.496336 3.834794-2.25859 7.607949-4.63165 11.535201-6.709729 6.740607-3.561792 13.344729-7.383343 20.160184-10.813054 5.049952-2.544765 10.003044-5.283251 15.000163-7.929279 4.988313-2.641625 10.047071-5.133558 15.193884-7.440578 2.606427-1.166718 5.217256-2.368658 7.766448-3.614624 3.112743-1.518935 6.295929-2.914594 9.391061-4.486361 3.125952-1.584975 6.428013-2.817734 9.642019-4.235406 2.795745-1.232758 5.556268-2.549168 8.365222-3.751108 6.146236-2.624015 12.314486-5.199599 18.473931-7.792795-.638398-1.197537-1.272394-2.390671-1.910793-3.588208-2.8838 1.149107-5.758794 2.320228-8.6514 3.438516m-76.119113-7.444981c-.237749-.40505-.545941-.427063-.893758-.51952-.475497-.127679-.497511.228941-.651607.523922-1.15352 2.214563-2.914619 3.896398-4.772579 5.507789-3.341686 2.896983-6.163848 6.278264-8.369624 10.073399-2.703288 4.653663-4.781385 9.63753-7.119244 14.484913-1.373658 2.852955-1.492532 5.926046-.708843 8.805418.88055 3.240394 2.597622 4.437931 5.384561 1.391256 2.681274-2.927802 4.574456-6.335498 6.335555-9.818041 1.901987-3.768719 3.244825-7.801601 5.278895-11.517487 1.90639-3.473738 3.319672-7.167611 4.798996-10.830665.704439-1.747875 1.237172-3.570597 1.25038-5.490178.04843-.920166-.04843-1.778694-.532732-2.610806m31.255109-12.045812c-1.030243 1.369242-1.959223 2.835344-3.125951 4.081311-2.725301 2.901385-5.578282 5.683897-8.352014 8.536853-3.434143 3.539778-6.379582 7.440578-8.594164 11.865301-1.386866 2.773707-2.425914 5.631065-2.078097 8.818626.444677 4.085714 3.354894 5.767549 7.180882 3.795135 2.086903-1.078663 3.623462-2.914593 5.340534-4.48636.832119-.766072 1.55417-1.668627 2.144138-2.654834 1.576184-2.659236 2.104514-5.560621 2.056083-8.607296-.052833-3.544181 1.245978-6.714131 2.742913-9.826847 1.219561-2.53596 2.690079-4.961853 3.412129-7.704741.405053-1.523337.678024-3.090701.250957-4.728509-.541538.215733-.730856.58556-.97741.911361m65.570129 29.05788c-1.783113-.440271-3.535407-.752864-4.891453.981804-.40065.515117-.893758.955388-1.312019 1.461699-2.553594 3.068688-1.981237 5.419735 1.629016 7.075154 2.232194 1.021428 4.636094 1.259174 6.987162 1.734667 1.334033.268565 2.870592.158498 3.95807.814501 1.576184.955388 3.227215.99061 4.856232 1.052248 5.7676.220135 11.544006.180511 17.320411.074846.823314-.017611 1.642225-.092457 2.430317-.365425.25536-.088054.647204-.017611.638685-.42266-.004689-.281774-.167591-.510714-.431756-.700031-1.677447-1.188731-3.500185-2.104495-5.353742-2.963023-3.504587-1.615794-7.070813-3.10391-10.720691-4.521582.242151-.154095.506316-.030819.603176-.290579-1.017035-.083652-2.042875-.123276-3.055507-.25976-4.081348-.559144-7.968974-1.7875-11.715713-3.486946-.35222.118874-.629593-.110067-.942188-.184913m-32.796071-36.749413c-.83212.515117-1.677448 1.00822-2.522775 1.496921-5.362547 3.121521-10.474138 6.595258-14.960539 10.901108-1.113895 1.069858-2.183763 2.218965-2.927827 3.601416-1.703864 3.165548-2.117722 6.586452-2.056084 10.130633.022014 1.400062.537136 2.56678 1.193145 3.685068.330206.567949.854133 1.259175 1.567379 1.307604 2.034069.132082 4.08575.312593 6.009751-.752863 3.302061-1.818319 5.455005-6.392733 4.79019-10.654556-.374234-2.390671.145291-4.592025 1.109492-6.700923 1.364852-2.980634 3.407728-5.543011 5.305312-8.202247 1.210756-1.703849 2.901411-3.081896 3.658684-5.146767-.493108-.110068-.818911.118873-1.166728.334606m-2.773732 75.070593c.294984-.114471.823314-.281774.695634-.73085-.127679-.440271-.57676-.638393-1.052256-.744058-4.231041-.937777-7.955766-2.690055-10.777928-6.177001-1.637822-2.020843-4.059334-2.914593-6.52047-3.583805-2.381887-.647198-4.86944-.695628-7.260132-1.15351-2.782537-.53713-5.14241-.057235-7.467061 1.320813-1.25038.744058-1.805127 1.90197-1.549767 3.191964.114471.567949.647204.854126.836522 1.334021 1.267991 3.293226 3.962473 4.618442 7.163271 5.243626 2.249805.444674 4.556845.686823 6.758219 1.303202 3.852404 1.078664 7.735628 1.827124 12.252848 1.875554 2.214582.347814 4.526025-.946582 6.92112-1.879956m-22.09299 16.422104c.435872-.039624.783689-.250954.920174-.70003.136485-.440271-.17611-.669212-.435872-.933375-1.127104-1.144704-2.527177-1.90197-3.830391-2.79572-2.571205-1.761084-5.221659-3.403294-7.982182-4.829772-5.120397-2.646028-10.645846-4.239809-16.078837-6.066933-.532732-.180511-1.012632-.286176-1.518948.061638-1.65103 1.131496-3.328478 2.214563-4.622886 3.790733-1.985639 2.417087-1.518948 4.688885 1.250381 6.128571 2.58001 1.342826 5.358145 1.976816 8.184709 2.447906 2.954244.493103 5.934904.774877 8.911162 1.091872 1.822738.189316 3.671892.440271 5.49463.704433 2.509566.361022 4.913467 1.329618 7.493477 1.259175.739662-.052833 1.479324-.088054 2.214583-.158498m48.645965-25.478477c.572357-.1629 1.307616-.391841 1.237172-1.294397-.057236-.74846-.554746-1.003817-1.175534-1.232758-2.192569-.814501-3.962473-2.293812-4.957494-4.32346-1.241575-2.531558-3.310867-3.936022-5.617907-5.195197-2.540386-1.391256-5.358145-1.99883-8.096654-2.813331-1.131506-.334606-2.408303-.726447-3.504588-.506312-1.510142.303787-3.020285.660407-4.53483.968596-.924577.189317-1.827141.378633-2.302638 1.668627-.766078 2.104495.070444 3.7379.779287 5.529803.466691 1.17112 1.047854 1.85354 2.408303 2.183743 2.038473.488701 3.949265 1.470505 5.948113 2.14412 2.535983.854125 4.988314 2.21016 7.841294 1.439685.325804-.088054.726454.070444 1.087479.127679 2.553594.400647 4.944286 1.571767 7.559519 1.540948 1.144714.176109 2.263012.066041 3.328478-.237746m42.473311-78.526719c-6.348763.74846-11.323868 3.975646-15.638561 8.400369-2.21018 2.271797-3.152368 5.261237-3.817183 8.263885-.629593 2.822136.669218 4.222198 3.055507 4.64926 3.49138.620782 8.695428-1.708251 10.4125-5.309667 1.492531-3.134729 3.553018-5.930449 5.860058-8.53245 2.408303-2.716472 5.261284-4.873799 8.409249-6.661299.259762-.149692.686828-.215733.616384-.660406-.070443-.457882-.493107-.374231-.792494-.396244-1.149117-.083652-2.302638-.132081-3.456158-.198122-1.558572.083651-3.099534.25976-4.649302.444674m50.873756 38.668994c1.743488-.167303 3.187589-.959791 4.239846-2.412685.457886-.629587.501914-1.356034.277373-1.99883-.233345-.656004-.937785-.303787-1.435296-.303787-3.288852.004403-6.304735-.686823-8.743857-3.117118-1.496935-1.488116-2.892606-3.086299-4.631692-4.332266-2.602024-1.871151-5.380158-2.139716-8.360818-1.17112-1.765502.572352-3.332881 1.523337-4.91787 2.465517-1.695058 1.003817-2.17936 2.817734-.933383 4.310252 1.589392 1.90197 3.66749 2.976231 6.02296 3.773122 4.88705 1.659821 9.844545 2.813331 15.026579 2.808928 1.149118 0 2.311443.088054 3.456158-.022013m-78.144378-4.530388c7.72242-2.491933 15.620951-4.297044 23.497467-6.163793 4.816607-1.140301 9.694852-2.020843 14.54668-3.00705.193721-.044027.405053-.004403.611982 0 1.642225-2.025246 3.249228-4.072506 4.6449-6.282666-.647204.110068-1.32963.136484-1.93721.352217-2.954244 1.05665-5.934904 2.020843-8.928773 2.967426-4.9663 1.567364-10.042669 2.641625-15.110232 3.759913-4.869439 1.069859-9.822531 1.7875-14.656749 3.051078-3.473768.906958-6.885898 2.025246-10.258403 3.271212-1.646628.611977-3.310866 1.175524-4.9663 1.761084.268568 1.664224 1.356047 2.716472 2.676871 3.592611 3.222812-1.320813 6.573303-2.236577 9.879767-3.302032m-8.211125-21.053755c.585565-1.10508 1.655433-1.945997 1.783113-3.293226-1.15352-.325801-2.170555-.89375-2.998272-1.774292-.581163-.625185-1.15352-1.263578-1.734683-1.897568-.686828.836515-1.686252 1.263578-2.527177 1.893165-2.047278 1.536546-4.134181 3.002648-6.009751 4.772537-1.514546 1.43088-2.21018 3.332851-3.337284 4.975061-2.139735 3.121521-3.121548 6.564439-2.624037 10.372783.127679.986207.427066 1.897567 1.545364 2.082481 1.171131.198122 2.373081.286176 3.531004-.180511.453483-.180511.902564-.435868 1.395671-.101262.347818-3.231589 1.68185-6.04492 3.724725-8.532451 1.651031-2.012038 1.677447-1.990024 4.028515-.946582.629593-2.650431 1.963626-4.992672 3.222812-7.370135m38.550463 37.519951c1.488129.004339 2.892605-.444738 4.358721-.572416 2.113319-.189317 4.371929.47109 6.331151-.920166.559149-.400647 1.237173-.647199 1.879974-.915764 2.078097-.862931 4.178208-1.681835 6.243097-2.575585.343414-.149692 1.303213-.378633.378636-1.025831-1.245977-.876139-2.602024-1.695043-4.107764-1.849138-2.395095-.250954-4.631691-.788085-6.828662-1.822721-1.50574-.713239-3.073119-1.571768-4.887051-1.320813-.180512.088054-.391844.145289-.541538.272968-3.566226 2.980634-7.445047 5.516594-11.40752 7.924876 2.505163 2.016441 5.397769 2.791318 8.580956 2.80459m16.576347-47.787069c-1.188742.788085-1.774308 1.901971-2.051681 3.227186-.17611.849723-.030819 1.699446.052833 2.562377.136485 1.439686.818911 1.932789 2.201374 2.056065.713245.066041 1.545365-.312592 2.188166.312592.52833-.669211 1.043451-1.356034 1.598198-2.007635 2.192568-2.579987 3.425338-5.661884 4.570052-8.787807-3.055507.21133-5.952515.920166-8.558942 2.637222m7.379006 19.253047c.986215-.092457 1.356046-.669212 1.444101-1.615794.189318-1.945997-.070444-2.37306-2.267415-3.271213-1.32963 1.871152-2.654857 3.742303-3.980084 5.609052 1.65103.092456 3.191992-.572353 4.803398-.722045m-27.931035 16.717087c-1.15352.215732-2.346665.096859-3.500185.400646-1.910792.510714-3.579434 2.218966-3.095132 4.51718 2.549192-1.166718 4.609678-2.98944 6.595317-4.917826"/></g></svg>