<svg xmlns="http://www.w3.org/2000/svg" viewBox="0 0 99.26 99.26"><defs><style>.cls-1{fill:#85754E;}</style></defs><g id="Layer_2" data-name="Layer 2"><g id="svg4402"><g id="layer1"><path id="path4206" class="cls-1" d="M10.46,97.79a22.06,22.06,0,0,1-5.59-4.06C-.07,88.52,0,89,0,49.46c0-40-.07-39.29,5.51-44.59C10.72-.07,10.23,0,49.79,0,89.84,0,89.08-.07,94.38,5.51c4.93,5.21,4.88,4.74,4.88,44.11s0,38.91-4.88,44.11c-4.39,4.63-7.38,5.5-19,5.52H65.14V62H81.42V45H65.14V40.83c0-5.94,1.11-6.72,9.56-6.72h6.72V17.82l-8.33,0c-9.93,0-12.94,1.1-17.79,6.39-3.78,4.11-5.68,9.53-5.68,16.2v4.48l-6,.22-6,.23V61.65l6,.22,6,.23V99.26h-18c-15.91,0-18.4-.19-21.13-1.46Z"/></g></g></g></svg>
