<svg xmlns="http://www.w3.org/2000/svg" viewBox="0 0 86.84 88.19"><defs><style>.cls-1{fill:#85754E;}</style></defs><g id="Layer_2" data-name="Layer 2"><g id="svg4402"><path class="cls-1" d="M86,39.65c.15.84.29,1.61.42,2.39.08.51.15,1,.23,1.55a2.48,2.48,0,0,1,0,.27c0,1.23.09,2.46.13,3.69q0,.3,0,.6c0,1.21,0,2.42-.14,3.62a53.74,53.74,0,0,1-.8,5.53,39.25,39.25,0,0,1-1.35,5c-.43,1.27-1,2.5-1.51,3.74a30.37,30.37,0,0,1-3.38,5.81A24.5,24.5,0,0,1,77,75.11c-.44.43-.81.93-1.25,1.36a38.63,38.63,0,0,1-9,6.63A37.32,37.32,0,0,1,59.9,86c-1.72.52-3.48,1-5.24,1.33-1.2.26-2.42.4-3.64.55-.76.09-1.54.08-2.31.15a51.41,51.41,0,0,1-5.69.12c-.94,0-1.88-.15-2.82-.24l-1.44-.14a37.19,37.19,0,0,1-5.44-1c-1.46-.36-2.87-.83-4.29-1.33s-2.57-1-3.84-1.6a38.16,38.16,0,0,1-5-2.72c-1.23-.77-2.38-1.66-3.55-2.52a33.56,33.56,0,0,1-4.59-4.08c-1-1-1.89-2.14-2.78-3.26-.73-.91-1.42-1.85-2.07-2.81a45.13,45.13,0,0,1-3.49-6.31,35.84,35.84,0,0,1-1.56-4A45.86,45.86,0,0,1,.72,52.55C.5,51.41.41,50.25.27,49.1.18,48.27.1,47.44,0,46.61a3.53,3.53,0,0,1,0-.46c0-.77,0-1.55,0-2.32C0,42.55,0,41.27.16,40c.17-1.65.38-3.3.71-4.94A45.89,45.89,0,0,1,2.4,29.4c.49-1.39,1.08-2.75,1.68-4.09a39.27,39.27,0,0,1,3.82-6.7,27,27,0,0,1,2.62-3.31c1.21-1.26,2.41-2.53,3.64-3.76a17.39,17.39,0,0,1,1.91-1.62C17.32,9,18.58,8.05,19.89,7.2a43.64,43.64,0,0,1,5-2.73A47.49,47.49,0,0,1,31,2,35.28,35.28,0,0,1,36.27.79c1-.14,1.95-.34,2.92-.49A13.85,13.85,0,0,1,40.77.15C42.33.09,43.9.05,45.46,0c.35,0,.71,0,1.06,0l3.35.26c.62,0,1.23.07,1.84.14a20.61,20.61,0,0,1,2.09.3c1.65.36,3.31.72,4.94,1.18a28.15,28.15,0,0,1,4.69,1.75c1.21.59,2.43,1.15,3.6,1.81s2.36,1.46,3.51,2.23c.75.5,1.47,1.05,2.19,1.6a13.9,13.9,0,0,1,1.12.91c1,.93,2,1.88,3,2.83.16.15.3.31.49.52a17.87,17.87,0,0,1-1.77,1.72c-.12.1-.24.19-.35.3l-7.15,7c-.81.78-1.65,1.53-2.52,2.34a12.66,12.66,0,0,1-1-.83,28.7,28.7,0,0,0-6.06-4.55,21.87,21.87,0,0,0-3.82-1.81,24.36,24.36,0,0,0-3.12-.84c-1.08-.21-2.18-.27-3.26-.42a34.71,34.71,0,0,0-6-.1A26.07,26.07,0,0,0,37.9,17a25.49,25.49,0,0,0-7.24,2.83,29.29,29.29,0,0,0-3.42,2.36,21.37,21.37,0,0,0-2.47,2.19A25.2,25.2,0,0,0,21.24,29a27.69,27.69,0,0,0-2.72,6.06,35.15,35.15,0,0,0-.85,3.79c-.18,1-.27,2-.39,3a3.53,3.53,0,0,0,0,.46c0,.75,0,1.5,0,2.26A29.44,29.44,0,0,0,17.63,49a25.49,25.49,0,0,0,1.07,4.55,27.54,27.54,0,0,0,3.79,7.37,27.36,27.36,0,0,0,3.72,4,25,25,0,0,0,5.2,3.6,23.35,23.35,0,0,0,4.94,2c.89.24,1.78.51,2.68.7s1.65.22,2.47.35a39,39,0,0,0,4.83.13,21.77,21.77,0,0,0,3.42-.24,28.41,28.41,0,0,0,3.43-.65A26.28,26.28,0,0,0,61.4,67,16.74,16.74,0,0,0,65,63.64c.55-.72,1.11-1.42,1.62-2.17a21.85,21.85,0,0,0,2.46-5c.27-.74.51-1.49.78-2.29a2.88,2.88,0,0,0-.41-.11H45.3c-.27,0-.55,0-.89,0-.12-1.24,0-2.43-.06-3.61s0-2.39,0-3.58V39.74c.18,0,.32-.07.47-.08a3.53,3.53,0,0,1,.46,0H86Z"/></g></g></svg>
