<svg xmlns="http://www.w3.org/2000/svg" xmlns:xlink="http://www.w3.org/1999/xlink" viewBox="0 0 7.56 12.91"><defs><style>.cls-1{fill:none;}.cls-2{clip-path:url(#clip-path);}.cls-3{fill:#822015;}</style><clipPath id="clip-path" transform="translate(0 0)"><rect class="cls-1" width="7.56" height="12.91"/></clipPath></defs><g id="Layer_2" data-name="Layer 2"><g id="Layer_1-2" data-name="Layer 1"><g class="cls-2"><path class="cls-3" d="M4.53,0h0L4.33.08A1.7,1.7,0,0,0,3.46,1,1.61,1.61,0,0,0,4,2.74a5.34,5.34,0,0,0,.72.59,9.09,9.09,0,0,1,1.17.94,2.89,2.89,0,0,1,.61,1.21,3.13,3.13,0,0,1,.06.63,3.1,3.1,0,0,1-.13.9l0,.13-.15.24A1.92,1.92,0,0,1,6,7.67c-.07.11-.21.28-.33.43l0,0-.05,0a2.49,2.49,0,0,0-.47.72A2.2,2.2,0,0,0,5,10l0,.1v0a.91.91,0,0,0,.2.39.7.7,0,0,0,1,.19.71.71,0,0,0,0-1,.7.7,0,0,1,.34.2,1.1,1.1,0,0,1,.23.42,1.67,1.67,0,0,0,.05-.56c0-.24-.17-.61-.2-.88a2.06,2.06,0,0,1,0-.71,1.4,1.4,0,0,1,.25-.62,1.4,1.4,0,0,1,.75-.43c-.23.18-.33.24-.42.42-.38.81.32,1.31.37,2.27A2.47,2.47,0,0,1,7,11.91a2.42,2.42,0,0,1-1.35.91H5.39l.18-.11A1.83,1.83,0,0,0,6,12.29a1.89,1.89,0,0,0,.31-.55l.08-.26h0a1.71,1.71,0,0,1-1.82.23,1.91,1.91,0,0,1-.73-2.12,4.64,4.64,0,0,1,.73-1.71,5.21,5.21,0,0,1,.48-.63l.13-.14A4.67,4.67,0,0,0,3.61,8.4a2.77,2.77,0,0,0-.68,2.45l0,.06H3a1.3,1.3,0,0,1-.8-.74v0l0,.05a1.5,1.5,0,0,0,.3,1.3H2.19a1.53,1.53,0,0,1-.93-.56l-.13-.21,0,.11a2.6,2.6,0,0,0,.1.4,3.51,3.51,0,0,0,1,1.55l.19.15-.26-.08a3.26,3.26,0,0,1-2-2.13,3.2,3.2,0,0,1,1-3.55l.1-.07-.13.24a2.74,2.74,0,0,0-.1,2L1,9.4V9.21a3.77,3.77,0,0,1,.14-.7,3.2,3.2,0,0,1,.55-1.06c.32-.43,1-.92,1.37-1.51a1,1,0,0,0-.55-1.47l-.08,0h0a.75.75,0,0,1,.21,0,1.34,1.34,0,0,1,1,1.05,1.41,1.41,0,0,1-.06.87,1.29,1.29,0,0,1-.28.42A1.94,1.94,0,0,0,3,7.3a.92.92,0,0,0-.11.64,6.08,6.08,0,0,0,.74-.66,5.29,5.29,0,0,0,.66-.76,2.49,2.49,0,0,0,.43-.92,1.27,1.27,0,0,0-.19-1c-.26-.43-1-1-1.37-1.57a1.88,1.88,0,0,1-.35-1.62,1.87,1.87,0,0,1,.47-.8A1.74,1.74,0,0,1,4.53,0Z" transform="translate(0 0)"/></g></g></g></svg>